<svg xmlns="http://www.w3.org/2000/svg" version="1.1" xmlns:xlink="http://www.w3.org/1999/xlink" xmlns:svgjs="http://svgjs.com/svgjs" width="1000" height="420" preserveAspectRatio="none" viewBox="0 0 1000 420"><g mask="url(&quot;#SvgjsMask1026&quot;)" fill="none"><rect width="1000" height="420" x="0" y="0" fill="#0e2a47"></rect><path d="M157.46 190.57L161.05 190.57L161.05 194.16L157.46 194.16z" fill="#e73635"></path><path d="M823.26 203.5L848.64 203.5L848.64 228.49L823.26 228.49z" fill="#e73635"></path><path d="M616.22 361.2 a29.48 29.48 0 1 0 58.96 0 a29.48 29.48 0 1 0 -58.96 0z" fill="#037b0b"></path><path d="M886.2 112.83a30.18 30.18 0 1 0-60.36 0.01z" fill="#d3b714"></path><path d="M452.19 328.23L474.63 328.23L474.63 350.67L452.19 350.67z" stroke="#037b0b"></path><path d="M466.61 18.21a7.44 7.44 0 1 0 14.42 3.66z" fill="#037b0b"></path><path d="M973.03 338.84L990.09 338.84L990.09 360.62L973.03 360.62z" stroke="#037b0b"></path><path d="M176.86 294.39L209.8 294.39L209.8 294.63L176.86 294.63z" fill="#e73635"></path><path d="M381.05 172.35L419.88 172.35L419.88 211.18L381.05 211.18z" stroke="#d3b714"></path><path d="M900.08 241.28a19.1 19.1 0 1 0-29.69 24.04z" stroke="#d3b714"></path><path d="M359.43 390.69 a22.43 22.43 0 1 0 44.86 0 a22.43 22.43 0 1 0 -44.86 0z" fill="#037b0b"></path><path d="M610.37 114.2a15.36 15.36 0 1 0-24.77 18.16z" stroke="#e73635"></path><path d="M542.03 311.02L550.58 311.02L550.58 319.57L542.03 319.57z" stroke="#037b0b"></path><path d="M430.78 66.01L463.59 66.01L463.59 107.46L430.78 107.46z" stroke="#d3b714"></path><path d="M954.02 134.99a38.51 38.51 0 1 0-0.08-77.02z" fill="#e73635"></path><path d="M434.72 26.87a8.67 8.67 0 1 0 0.67-17.33z" stroke="#e73635"></path><path d="M435.41 230.07L467.32 230.07L467.32 261.98L435.41 261.98z" fill="#d3b714"></path><path d="M837.19 382.45 a10.16 10.16 0 1 0 20.32 0 a10.16 10.16 0 1 0 -20.32 0z" stroke="#d3b714"></path><path d="M952.71 73.34 a20.79 20.79 0 1 0 41.58 0 a20.79 20.79 0 1 0 -41.58 0z" fill="#d3b714"></path><path d="M431.9 309.83 a3.98 3.98 0 1 0 7.96 0 a3.98 3.98 0 1 0 -7.96 0z" stroke="#d3b714"></path><path d="M656.74 313.52L676.33 313.52L676.33 324.56L656.74 324.56z" stroke="#037b0b"></path><path d="M854.86 142.51L873.78 142.51L873.78 161.43L854.86 161.43z" stroke="#037b0b"></path><path d="M816.35 136.49a12.61 12.61 0 1 0 25.04 3.01z" fill="#037b0b"></path><path d="M912.37 181.12L936.62 181.12L936.62 205.37L912.37 205.37z" fill="#e73635"></path><path d="M887.29 325.36 a27.67 27.67 0 1 0 55.34 0 a27.67 27.67 0 1 0 -55.34 0z" fill="#e73635"></path><path d="M302.72 131.66L322.67 131.66L322.67 151.61L302.72 151.61z" stroke="#e73635"></path><path d="M35.88 80.51 a30.79 30.79 0 1 0 61.58 0 a30.79 30.79 0 1 0 -61.58 0z" fill="#d3b714"></path><path d="M240.06 270.76a5.47 5.47 0 1 0-1.64 10.82z" stroke="#037b0b"></path><path d="M712.9 45.15L738.45 45.15L738.45 61.4L712.9 61.4z" fill="#d3b714"></path><path d="M131.29 192.8L159.5 192.8L159.5 217.06L131.29 217.06z" stroke="#e73635"></path></g><defs><mask id="SvgjsMask1026"><rect width="1000" height="420" fill="#ffffff"></rect></mask></defs></svg>