<svg xmlns="http://www.w3.org/2000/svg" version="1.1" xmlns:xlink="http://www.w3.org/1999/xlink" xmlns:svgjs="http://svgjs.com/svgjs" width="1000" height="420" preserveAspectRatio="none" viewBox="0 0 1000 420"><g mask="url(&quot;#SvgjsMask1011&quot;)" fill="none"><rect width="1000" height="420" x="0" y="0" fill="#0e2a47"></rect><path d="M83.29 306.56L85.42 306.56L85.42 308.69L83.29 308.69z" stroke="#e73635"></path><path d="M729.63 192.72L767.83 192.72L767.83 218.64L729.63 218.64z" fill="#037b0b"></path><path d="M573.34 331.16L604.89 331.16L604.89 362.71L573.34 362.71z" stroke="#d3b714"></path><path d="M289.67 42.12a18.46 18.46 0 1 0 25.41 26.78z" stroke="#d3b714"></path><path d="M-0.55-12.64a35.92 35.92 0 1 0 31.79 64.42z" stroke="#d3b714"></path><path d="M323.25 138.73L323.41 138.73L323.41 138.89L323.25 138.89z" fill="#e73635"></path><path d="M442.91 294.55L459.93 294.55L459.93 311.57L442.91 311.57z" stroke="#e73635"></path><path d="M899.58 57.69L931.28 57.69L931.28 82.07L899.58 82.07z" fill="#e73635"></path><path d="M785.29 377.21L797.59 377.21L797.59 411.07L785.29 411.07z" fill="#d3b714"></path><path d="M535.41 419.8 a20.34 20.34 0 1 0 40.68 0 a20.34 20.34 0 1 0 -40.68 0z" fill="#037b0b"></path><path d="M242.79 273.77 a38.7 38.7 0 1 0 77.4 0 a38.7 38.7 0 1 0 -77.4 0z" stroke="#e73635"></path><path d="M208.81 74.91L220.76 74.91L220.76 86.86L208.81 86.86z" stroke="#d3b714"></path><path d="M930.89 354.93a38.66 38.66 0 1 0 52.96-56.34z" fill="#037b0b"></path><path d="M664.18 199.91L691.41 199.91L691.41 211.67L664.18 211.67z" fill="#d3b714"></path><path d="M222.39 238.95a1.66 1.66 0 1 0 3.3 0.31z" stroke="#037b0b"></path><path d="M916.91 361.86L921.8 361.86L921.8 393.88L916.91 393.88z" stroke="#037b0b"></path><path d="M879.28 21.2L910.22 21.2L910.22 52.14L879.28 52.14z" stroke="#e73635"></path><path d="M674.8 75.45L715.13 75.45L715.13 115.78L674.8 115.78z" fill="#d3b714"></path><path d="M364.33 119.6L364.91 119.6L364.91 132.35L364.33 132.35z" stroke="#037b0b"></path><path d="M519.66 113.2 a25.88 25.88 0 1 0 51.76 0 a25.88 25.88 0 1 0 -51.76 0z" fill="#037b0b"></path><path d="M83.04 247.4L112.51 247.4L112.51 252.03L83.04 252.03z" stroke="#e73635"></path><path d="M460.63 3.72a6.35 6.35 0 1 0 3.37 12.25z" fill="#037b0b"></path><path d="M627.33 185.41 a28.08 28.08 0 1 0 56.16 0 a28.08 28.08 0 1 0 -56.16 0z" fill="#e73635"></path><path d="M567.15 77.51a34.29 34.29 0 1 0-66.72 15.86z" fill="#037b0b"></path><path d="M973.25 46.52L975.63 46.52L975.63 65.35L973.25 65.35z" fill="#d3b714"></path><path d="M447.36 353.87L471.6 353.87L471.6 378.11L447.36 378.11z" stroke="#e73635"></path><path d="M743.83 320.41L770.49 320.41L770.49 345.72L743.83 345.72z" fill="#037b0b"></path><path d="M324.94 3.71a41.14 41.14 0 1 0-50.61 64.88z" stroke="#d3b714"></path><path d="M134.22 129.74a37.23 37.23 0 1 0 22.65-70.94z" fill="#d3b714"></path><path d="M787.7 64.37L823.36 64.37L823.36 100.03L787.7 100.03z" fill="#e73635"></path></g><defs><mask id="SvgjsMask1011"><rect width="1000" height="420" fill="#ffffff"></rect></mask></defs></svg>